<?xml version="1.0" encoding="UTF-8"?>
<svg width="1440px" height="1440px" viewBox="0 0 1440 1440" version="1.1" xmlns="http://www.w3.org/2000/svg" xmlns:xlink="http://www.w3.org/1999/xlink">
    <!-- Generator: Sketch 51.3 (57544) - http://www.bohemiancoding.com/sketch -->
    <title>6. Logo Vertical</title>
    <desc>Created with Sketch.</desc>
    <defs>
        <path d="M96.4593285,500.445397 C32.3125979,505.069943 0.23923261,472.986375 0.23923261,404.194694 C0.23923261,364.988411 0.23923261,393.921778 0.23923261,336.87715 C0.23923261,308.179572 0.23923261,260.054325 0.23923261,192.501407 C-4.4464856,64.1671357 59.700245,4.15725578e-14 192.679424,-7.27196081e-15 C325.658604,-7.27196081e-15 453.952065,-7.27196081e-15 577.559808,-7.27196081e-15 C705.853269,2.68198575 770,66.8491214 770,192.501407 C770,318.153693 770,388.718121 770,404.194694 C770,468.36183 737.926635,500.445397 673.779904,500.445397 C609.633173,500.445397 417.192982,500.445397 96.4593285,500.445397 Z" id="path-1"></path>
        <rect id="path-3" x="-4.54747351e-13" y="2.27373675e-13" width="171" height="51"></rect>
    </defs>
    <g id="6.-Logo-Vertical" stroke="none" stroke-width="1" fill="none" fill-rule="evenodd">
        <g id="Bag-Final" transform="translate(335.000000, 241.000000)">
            <g id="straps" transform="translate(3.850000, 0.000000)" fill-rule="nonzero">
                <polygon id="Path-11" fill="#9392CE" transform="translate(579.432223, 267.464960) scale(1, -1) translate(-579.432223, -267.464960) " points="757.305113 0 490.495779 534.929919 401.559334 534.929919 668.368668 0"></polygon>
                <rect id="Rectangle-17" fill="#9392CE" x="313.775" y="0" width="155.925" height="30.8235294"></rect>
                <polygon id="Path-11" fill="#3731AA" points="357.219325 0 90.4099906 534.929919 1.47354597 534.929919 268.28288 0"></polygon>
            </g>
            <g id="bag" transform="translate(0.000000, 154.117647)">
                <mask id="mask-2" fill="white">
                    <use xlink:href="#path-1"></use>
                </mask>
                <use id="Path-10" fill="#3731AA" fill-rule="nonzero" xlink:href="#path-1"></use>
                <polygon id="Path-11" fill="#1D1789" fill-rule="nonzero" mask="url(#mask-2)" transform="translate(650.382223, 248.200254) scale(1, -1) translate(-650.382223, -248.200254) " points="828.255113 -19.2647059 561.445779 515.665214 472.509334 515.665214 739.318668 -19.2647059"></polygon>
                <polygon id="Path-11" fill="#1D1789" fill-rule="nonzero" mask="url(#mask-2)" points="293.819325 -19.2647059 27.0099906 515.665214 -61.926454 515.665214 204.88288 -19.2647059"></polygon>
                <g id="Group-12" mask="url(#mask-2)">
                    <g transform="translate(82.525000, 125.764706)" id="shapes">
                        <g transform="translate(0.475000, 0.117647)">
                            <rect id="Rectangle-16" fill="#9392CE" fill-rule="nonzero" x="1" y="247" width="178" height="53"></rect>
                            <rect id="Rectangle-20" fill="#FFF3E6" fill-rule="nonzero" x="445" y="20" width="147" height="280"></rect>
                            <rect id="Rectangle-20" fill="#9392CE" fill-rule="nonzero" x="445" y="200" width="147" height="101"></rect>
                            <g id="Group" transform="translate(435.000000, 169.000000)">
                                <mask id="mask-4" fill="white">
                                    <use xlink:href="#path-3"></use>
                                </mask>
                                <use id="Rectangle-20" fill="#3731AA" fill-rule="nonzero" xlink:href="#path-3"></use>
                                <polygon id="Path-11" fill="#1D1789" fill-rule="nonzero" mask="url(#mask-4)" transform="translate(48.382223, -215.682099) scale(1, -1) translate(-48.382223, 215.682099) " points="226.255113 -483.147059 -40.5542214 51.7828606 -129.490666 51.7828606 137.318668 -483.147059"></polygon>
                            </g>
                            <polygon id="Triangle" fill="#2EC4B6" fill-rule="nonzero" points="274.5 95 384 300 165 300"></polygon>
                            <polygon id="Path-2" fill="#3731AA" fill-rule="nonzero" points="274 96 162.719234 303 124.162888 303 116 303 225.708627 96"></polygon>
                            <polygon id="Path-5" fill="#CCFF66" fill-rule="nonzero" transform="translate(342.000000, 119.500000) scale(-1, 1) translate(-342.000000, -119.500000) " points="394 19 290 220 290 19"></polygon>
                            <circle id="Oval-2" fill="#E83683" fill-rule="nonzero" cx="107" cy="107" r="107"></circle>
                        </g>
                    </g>
                </g>
            </g>
        </g>
        <g id="wordmark" transform="translate(420.000000, 1011.000000)">
            <path d="M0.392082136,112.01485 C0.392082136,84.8707023 19.3929856,62.793462 46.5371335,62.793462 C59.0234415,62.793462 69.3382177,66.9555647 76.9385791,74.3749651 L76.9385791,2.71441478 L108.968674,2.71441478 L108.968674,158.340862 L77.300501,158.340862 L77.300501,147.845125 L76.9385791,147.845125 C70.0620616,155.445487 59.2044025,161.055277 46.5371335,161.055277 C19.3929856,161.055277 0.392082136,139.158998 0.392082136,112.01485 Z M34.4127474,112.01485 C34.4127474,124.682119 43.0988747,133.730168 56.1280657,133.730168 C68.6143737,133.730168 77.662423,124.682119 77.662423,112.01485 C77.662423,99.1666201 68.0714908,90.1185708 56.1280657,90.1185708 C44.0036797,90.1185708 34.4127474,99.1666201 34.4127474,112.01485 Z M163.417823,65.5078768 L163.417823,109.662357 C163.417823,127.939417 168.30377,134.996895 181.694883,134.996895 C195.085996,134.996895 199.971943,127.939417 199.971943,109.662357 L199.971943,65.5078768 L232.002037,65.5078768 L232.002037,117.44368 C232.002037,148.568969 216.439392,161.055277 181.694883,161.055277 C146.950374,161.055277 131.387729,148.568969 131.387729,117.44368 L131.387729,65.5078768 L163.417823,65.5078768 Z M262.363269,65.5078768 L262.363269,45.7831294 C262.54423,18.6389815 275.573421,0 298.736427,0 C315.022916,0 325.156731,8.32420534 325.156731,8.32420534 L313.93715,30.9443285 C313.93715,30.9443285 309.594086,28.4108747 304.346218,28.4108747 C296.202973,28.4108747 294.393363,33.8397043 294.393363,46.6879343 L294.393363,65.5078768 L315.74676,65.5078768 L315.74676,89.9376099 L294.393363,89.9376099 L294.393363,158.340862 L262.363269,158.340862 L262.363269,89.9376099 L248.972156,89.9376099 L248.972156,65.5078768 L262.363269,65.5078768 Z M340.447934,65.5078768 L340.447934,45.7831294 C340.628895,18.6389815 353.658086,0 376.821092,0 C393.107581,0 403.241396,8.32420534 403.241396,8.32420534 L392.021815,30.9443285 C392.021815,30.9443285 387.678752,28.4108747 382.430883,28.4108747 C374.287639,28.4108747 372.478029,33.8397043 372.478029,46.6879343 L372.478029,65.5078768 L393.831425,65.5078768 L393.831425,89.9376099 L372.478029,89.9376099 L372.478029,158.340862 L340.447934,158.340862 L340.447934,89.9376099 L327.056821,89.9376099 L327.056821,65.5078768 L340.447934,65.5078768 Z M414.189536,158.340862 L414.189536,2.71441478 L446.21963,2.71441478 L446.21963,158.340862 L414.189536,158.340862 Z M564.367047,116.357914 L497.049561,116.357914 C497.049561,130.653832 508.992986,135.539778 517.13623,135.539778 C527.451006,135.539778 531.975031,133.549207 539.756353,125.225002 L562.919359,136.806505 C552.423622,154.359721 535.41329,161.055277 514.783737,161.055277 C486.734784,161.055277 463.752739,138.978037 463.752739,112.01485 C463.752739,84.8707023 486.734784,62.793462 514.783737,62.793462 C543.013651,62.793462 564.548008,79.4418727 564.548008,112.01485 C564.548008,113.281577 564.548008,115.272148 564.367047,116.357914 Z M497.954366,98.6237372 L533.241758,98.6237372 C531.79407,88.8518439 525.098513,83.6039754 515.688542,83.6039754 C504.649922,83.6039754 498.497248,90.1185708 497.954366,98.6237372 Z" id="duffle" fill="#3731AA"></path>
            <circle id="Oval" fill="#E83683" fill-rule="nonzero" cx="594.406571" cy="140.747433" r="17.5934292"></circle>
        </g>
    </g>
</svg>