<?xml version="1.0" encoding="UTF-8"?>
<svg width="205px" height="205px" viewBox="0 0 205 205" version="1.1" xmlns="http://www.w3.org/2000/svg" xmlns:xlink="http://www.w3.org/1999/xlink">
    <!-- Generator: Sketch 51.3 (57544) - http://www.bohemiancoding.com/sketch -->
    <title>Artboard 2</title>
    <desc>Created with Sketch.</desc>
    <defs></defs>
    <g id="Artboard-2" stroke="none" stroke-width="1" fill="none" fill-rule="evenodd">
        <rect fill="#FFFFFF" x="0" y="0" width="205" height="205"></rect>
        <g id="guides"></g>
        <g id="Group-2" transform="translate(23.000000, 0.000000)">
            <path d="M77.1536178,84.4196429 L77.0929624,84.4196429 L6.17671578,84.4196429 C4.03608638,84.4196429 2.04709543,83.2999578 0.922443621,81.4526055 C-0.202208187,79.6052532 -0.305827792,77.2992657 0.652021726,75.3571117 L36.1076177,3.45898136 C37.1564503,1.340035 39.2945524,0 41.6348391,0 C43.9751258,0 46.1132279,1.340035 47.1595331,3.45898136 L82.268888,74.6499422 C82.9386245,75.6492035 83.3303571,76.8560036 83.3303571,78.1576055 C83.3303571,81.6191491 80.5629555,84.4196429 77.1536178,84.4196429" id="Fill-19" fill="#3FB1E5" style="mix-blend-mode: multiply;" transform="translate(41.665179, 42.209821) scale(1, -1) rotate(180.000000) translate(-41.665179, -42.209821) "></path>
            <path d="M146.816422,155 L75.8506921,155 C72.4364464,155 69.6696429,152.199506 69.6696429,148.740525 L69.6696429,76.8423945 C69.6696429,73.3808509 72.4364464,70.5803571 75.8506921,70.5803571 L146.816422,70.5803571 C150.230667,70.5803571 153,73.3808509 153,76.8423945 L153,148.740525 C153,152.199506 150.230667,155 146.816422,155" id="Fill-23" fill="#38BB4C" style="mix-blend-mode: multiply;"></path>
            <path d="M43.0299855,155 C20.0584345,155 1.36607143,136.064705 1.36607143,112.788897 C1.36607143,89.5130897 20.0584345,70.5803571 43.0299855,70.5803571 C66.0040655,70.5803571 84.6964286,89.5130897 84.6964286,112.788897 C84.6964286,136.064705 66.0040655,155 43.0299855,155" id="Fill-29" fill="#FF2F57" style="mix-blend-mode: multiply;"></path>
        </g>
        <path d="M24,176.16 L31.8553305,176.16 C39.2833837,176.16 45.5282071,181.860571 45.5282071,189.814857 C45.5282071,197.802286 39.3162511,203.502857 31.8553305,203.502857 L24,203.502857 L24,176.16 Z M30.1790884,197.934857 L31.1322457,197.934857 C35.7008271,197.934857 38.8232388,194.421714 38.8561063,189.848 C38.8561063,185.274286 35.7336945,181.728 31.1322457,181.728 L30.1790884,181.728 L30.1790884,197.934857 Z M65.5426836,195.813714 L53.3159767,195.813714 C53.3159767,198.432 55.4852311,199.326857 56.9642682,199.326857 C58.8377153,199.326857 59.6594026,198.962286 61.0727047,197.437714 L65.2797436,199.558857 C63.3734291,202.773714 60.2838849,204 56.5369908,204 C51.4425296,204 47.2683582,199.956571 47.2683582,195.018286 C47.2683582,190.046857 51.4425296,186.003429 56.5369908,186.003429 C61.6643196,186.003429 65.5755511,189.052571 65.5755511,195.018286 C65.5755511,195.250286 65.5755511,195.614857 65.5426836,195.813714 Z M53.4803141,192.565714 L59.889475,192.565714 C59.6265351,190.776 58.4104379,189.814857 56.7013283,189.814857 C54.6964113,189.814857 53.5789166,191.008 53.4803141,192.565714 Z M71.4570061,175.994286 C73.3633206,175.994286 74.9080928,177.552 74.9080928,179.474286 C74.9080928,181.396571 73.3633206,182.954286 71.4570061,182.954286 C69.5506916,182.954286 68.0059195,181.396571 68.0059195,179.474286 C68.0059195,177.552 69.5506916,175.994286 71.4570061,175.994286 Z M68.4660644,186.500571 L74.2836104,186.500571 L74.2836104,203.502857 L68.4660644,203.502857 L68.4660644,186.500571 Z M85.949744,186.003429 C89.2036257,186.003429 91.6029526,187.329143 91.6029526,187.329143 L89.6966381,191.173714 C89.6966381,191.173714 87.7245886,190.113143 85.949744,190.113143 C84.6679118,190.113143 84.142032,190.345143 84.142032,191.140571 C84.142032,192.035429 85.3252617,192.300571 86.7714313,192.764571 C89.0064207,193.460571 91.89876,194.72 91.89876,198.2 C91.89876,203.204571 87.3630462,204 83.9119595,204 C79.8363905,204 77.4041962,201.713143 77.4041962,201.713143 L79.7706556,197.702857 C79.7706556,197.702857 82.07138,199.658286 83.944827,199.658286 C84.7665143,199.658286 85.7525391,199.558857 85.7525391,198.432 C85.7525391,197.205714 83.9119595,197.106286 82.005645,196.112 C80.2965354,195.217143 78.5874259,194.024 78.5874259,191.472 C78.5874259,187.992 81.5126326,186.003429 85.949744,186.003429 Z M105.913093,176.16 L105.913093,198.034286 L115.247461,198.034286 L115.247461,203.502857 L99.7340048,203.502857 L99.7340048,176.16 L105.913093,176.16 Z M117.316287,195.018286 C117.316287,190.046857 120.767374,186.003429 125.697497,186.003429 C127.965354,186.003429 129.838801,186.765714 131.219236,188.124571 L131.219236,186.500571 L137.036782,186.500571 L137.036782,203.502857 L131.284971,203.502857 L131.284971,201.580571 L131.219236,201.580571 C129.970271,202.972571 127.998222,204 125.697497,204 C120.767374,204 117.316287,199.989714 117.316287,195.018286 Z M123.495375,195.018286 C123.495375,197.338286 125.073015,198.995429 127.439474,198.995429 C129.707331,198.995429 131.350706,197.338286 131.350706,195.018286 C131.350706,192.665143 129.608729,191.008 127.439474,191.008 C125.237352,191.008 123.495375,192.665143 123.495375,195.018286 Z M160.929623,195.018286 C160.929623,199.989714 157.478536,204 152.548412,204 C150.247688,204 148.275638,202.972571 147.026674,201.580571 L146.960939,201.580571 L146.960939,203.502857 L141.209127,203.502857 L141.209127,175 L147.026674,175 L147.026674,188.124571 C148.407108,186.765714 150.280555,186.003429 152.548412,186.003429 C157.478536,186.003429 160.929623,190.046857 160.929623,195.018286 Z M154.750534,195.018286 C154.750534,192.665143 153.008557,191.008 150.806435,191.008 C148.637181,191.008 146.895204,192.665143 146.895204,195.018286 C146.895204,197.338286 148.538578,198.995429 150.806435,198.995429 C153.172894,198.995429 154.750534,197.338286 154.750534,195.018286 Z M171.050984,186.003429 C174.304866,186.003429 176.704193,187.329143 176.704193,187.329143 L174.797878,191.173714 C174.797878,191.173714 172.825829,190.113143 171.050984,190.113143 C169.769152,190.113143 169.243272,190.345143 169.243272,191.140571 C169.243272,192.035429 170.426502,192.300571 171.872671,192.764571 C174.107661,193.460571 177,194.72 177,198.2 C177,203.204571 172.464286,204 169.0132,204 C164.937631,204 162.505436,201.713143 162.505436,201.713143 L164.871896,197.702857 C164.871896,197.702857 167.17262,199.658286 169.046067,199.658286 C169.867754,199.658286 170.853779,199.558857 170.853779,198.432 C170.853779,197.205714 169.0132,197.106286 167.106885,196.112 C165.397775,195.217143 163.688666,194.024 163.688666,191.472 C163.688666,187.992 166.613873,186.003429 171.050984,186.003429 Z" id="Deis-Labs" fill="#4A4A4A"></path>
    </g>
</svg>