<?xml version="1.0" encoding="UTF-8"?>
<svg width="2700px" height="1200px" viewBox="0 0 2700 1200" version="1.1" xmlns="http://www.w3.org/2000/svg" xmlns:xlink="http://www.w3.org/1999/xlink">
    <!-- Generator: Sketch 51.3 (57544) - http://www.bohemiancoding.com/sketch -->
    <title>7. Logo Horizontal</title>
    <desc>Created with Sketch.</desc>
    <defs>
        <path d="M96.4593285,500.445397 C32.3125979,505.069943 0.23923261,472.986375 0.23923261,404.194694 C0.23923261,364.988411 0.23923261,393.921778 0.23923261,336.87715 C0.23923261,308.179572 0.23923261,260.054325 0.23923261,192.501407 C-4.4464856,64.1671357 59.700245,4.15725578e-14 192.679424,-7.27196081e-15 C325.658604,-7.27196081e-15 453.952065,-7.27196081e-15 577.559808,-7.27196081e-15 C705.853269,2.68198575 770,66.8491214 770,192.501407 C770,318.153693 770,388.718121 770,404.194694 C770,468.36183 737.926635,500.445397 673.779904,500.445397 C609.633173,500.445397 417.192982,500.445397 96.4593285,500.445397 Z" id="path-1"></path>
        <rect id="path-3" x="-4.54747351e-13" y="2.27373675e-13" width="171" height="51"></rect>
    </defs>
    <g id="7.-Logo-Horizontal" stroke="none" stroke-width="1" fill="none" fill-rule="evenodd">
        <g id="Bag-Final" transform="translate(324.000000, 251.000000)">
            <g id="straps" transform="translate(3.850000, 0.000000)" fill-rule="nonzero">
                <polygon id="Path-11" fill="#9392CE" transform="translate(579.432223, 267.464960) scale(1, -1) translate(-579.432223, -267.464960) " points="757.305113 0 490.495779 534.929919 401.559334 534.929919 668.368668 0"></polygon>
                <rect id="Rectangle-17" fill="#9392CE" x="313.775" y="0" width="155.925" height="30.8235294"></rect>
                <polygon id="Path-11" fill="#3731AA" points="357.219325 0 90.4099906 534.929919 1.47354597 534.929919 268.28288 0"></polygon>
            </g>
            <g id="bag" transform="translate(0.000000, 154.117647)">
                <mask id="mask-2" fill="white">
                    <use xlink:href="#path-1"></use>
                </mask>
                <use id="Path-10" fill="#3731AA" fill-rule="nonzero" xlink:href="#path-1"></use>
                <polygon id="Path-11" fill="#1D1789" fill-rule="nonzero" mask="url(#mask-2)" transform="translate(650.382223, 248.200254) scale(1, -1) translate(-650.382223, -248.200254) " points="828.255113 -19.2647059 561.445779 515.665214 472.509334 515.665214 739.318668 -19.2647059"></polygon>
                <polygon id="Path-11" fill="#1D1789" fill-rule="nonzero" mask="url(#mask-2)" points="293.819325 -19.2647059 27.0099906 515.665214 -61.926454 515.665214 204.88288 -19.2647059"></polygon>
                <g id="Group-12" mask="url(#mask-2)">
                    <g transform="translate(82.525000, 125.764706)" id="shapes">
                        <g transform="translate(0.475000, 0.117647)">
                            <rect id="Rectangle-16" fill="#9392CE" fill-rule="nonzero" x="1" y="247" width="178" height="53"></rect>
                            <rect id="Rectangle-20" fill="#FFF3E6" fill-rule="nonzero" x="445" y="20" width="147" height="280"></rect>
                            <rect id="Rectangle-20" fill="#9392CE" fill-rule="nonzero" x="445" y="200" width="147" height="101"></rect>
                            <g id="Group" transform="translate(435.000000, 169.000000)">
                                <mask id="mask-4" fill="white">
                                    <use xlink:href="#path-3"></use>
                                </mask>
                                <use id="Rectangle-20" fill="#3731AA" fill-rule="nonzero" xlink:href="#path-3"></use>
                                <polygon id="Path-11" fill="#1D1789" fill-rule="nonzero" mask="url(#mask-4)" transform="translate(48.382223, -215.682099) scale(1, -1) translate(-48.382223, 215.682099) " points="226.255113 -483.147059 -40.5542214 51.7828606 -129.490666 51.7828606 137.318668 -483.147059"></polygon>
                            </g>
                            <polygon id="Triangle" fill="#2EC4B6" fill-rule="nonzero" points="274.5 95 384 300 165 300"></polygon>
                            <polygon id="Path-2" fill="#3731AA" fill-rule="nonzero" points="274 96 162.719234 303 124.162888 303 116 303 225.708627 96"></polygon>
                            <polygon id="Path-5" fill="#CCFF66" fill-rule="nonzero" transform="translate(342.000000, 119.500000) scale(-1, 1) translate(-342.000000, -119.500000) " points="394 19 290 220 290 19"></polygon>
                            <circle id="Oval-2" fill="#E83683" fill-rule="nonzero" cx="107" cy="107" r="107"></circle>
                        </g>
                    </g>
                </g>
            </g>
        </g>
        <g id="wordmark" transform="translate(1279.000000, 545.000000)">
            <path d="M0,208.651685 C0,158.089888 35.3161578,116.966292 85.7678118,116.966292 C108.975573,116.966292 128.147201,124.719101 142.273664,138.539326 L142.273664,5.05617978 L201.806616,5.05617978 L201.806616,294.94382 L142.946353,294.94382 L142.946353,275.393258 L142.273664,275.393258 C129.492579,289.550562 109.311917,300 85.7678118,300 C35.3161578,300 0,259.213483 0,208.651685 Z M63.2327397,208.651685 C63.2327397,232.247191 79.377269,249.101124 103.594063,249.101124 C126.801824,249.101124 143.619042,232.247191 143.619042,208.651685 C143.619042,184.719101 125.792791,167.865169 103.594063,167.865169 C81.0589908,167.865169 63.2327397,184.719101 63.2327397,208.651685 Z M303.008897,122.022472 L303.008897,204.269663 C303.008897,238.314607 312.090195,251.460674 336.979677,251.460674 C361.86916,251.460674 370.950458,238.314607 370.950458,204.269663 L370.950458,122.022472 L430.483409,122.022472 L430.483409,218.764045 C430.483409,276.741573 401.557794,300 336.979677,300 C272.40156,300 243.475945,276.741573 243.475945,218.764045 L243.475945,122.022472 L303.008897,122.022472 Z M486.914519,122.022472 L486.914519,85.2808989 C487.250863,34.7191011 511.467657,0 554.519735,0 C584.790727,0 603.626012,15.505618 603.626012,15.505618 L582.772661,57.6404494 C582.772661,57.6404494 574.700397,52.9213483 564.94641,52.9213483 C549.810914,52.9213483 546.44747,63.0337079 546.44747,86.9662921 L546.44747,122.022472 L586.136105,122.022472 L586.136105,167.52809 L546.44747,167.52809 L546.44747,294.94382 L486.914519,294.94382 L486.914519,167.52809 L462.025036,167.52809 L462.025036,122.022472 L486.914519,122.022472 Z M632.04711,122.022472 L632.04711,85.2808989 C632.383454,34.7191011 656.600248,0 699.652326,0 C729.923319,0 748.758603,15.505618 748.758603,15.505618 L727.905253,57.6404494 C727.905253,57.6404494 719.832988,52.9213483 710.079002,52.9213483 C694.943505,52.9213483 691.580062,63.0337079 691.580062,86.9662921 L691.580062,122.022472 L731.268696,122.022472 L731.268696,167.52809 L691.580062,167.52809 L691.580062,294.94382 L632.04711,294.94382 L632.04711,167.52809 L607.157627,167.52809 L607.157627,122.022472 L632.04711,122.022472 Z M769.107437,294.94382 L769.107437,5.05617978 L828.640389,5.05617978 L828.640389,294.94382 L769.107437,294.94382 Z M1048.23588,216.741573 L923.115782,216.741573 C923.115782,243.370787 945.31451,252.47191 960.450006,252.47191 C979.621635,252.47191 988.030244,248.764045 1002.49305,233.258427 L1045.54513,254.831461 C1026.03716,287.52809 994.420786,300 956.077529,300 C903.944154,300 861.22842,258.876404 861.22842,208.651685 C861.22842,158.089888 903.944154,116.966292 956.077529,116.966292 C1008.54725,116.966292 1048.57223,147.977528 1048.57223,208.651685 C1048.57223,211.011236 1048.57223,214.719101 1048.23588,216.741573 Z M924.797504,183.707865 L990.384654,183.707865 C987.693899,165.505618 975.249158,155.730337 957.759251,155.730337 C937.242245,155.730337 925.806537,167.865169 924.797504,183.707865 Z" id="duffle" fill="#3731AA"></path>
            <ellipse id="Oval" fill="#E83683" fill-rule="nonzero" cx="1102.58959" cy="261.228814" rx="32.4104143" ry="32.4152542"></ellipse>
        </g>
    </g>
</svg>