<?xml version="1.0" encoding="UTF-8"?>
<svg width="920px" height="915px" viewBox="0 0 920 915" version="1.1" xmlns="http://www.w3.org/2000/svg" xmlns:xlink="http://www.w3.org/1999/xlink">
    <!-- Generator: Sketch 51.3 (57544) - http://www.bohemiancoding.com/sketch -->
    <title>Artboard</title>
    <desc>Created with Sketch.</desc>
    <defs></defs>
    <g id="Artboard" stroke="none" stroke-width="1" fill="none" fill-rule="evenodd">
        <g id="Group-2" transform="translate(133.000000, 121.000000)">
            <path d="M329.612027,366 L329.352898,366 L26.3878722,366 C17.2427768,366 8.74550401,361.145623 3.94081989,353.136457 C-0.863864228,345.127291 -1.30654299,335.12972 2.7855363,326.709542 L154.257252,14.9963579 C158.738025,5.80970013 167.872323,0 177.870385,0 C187.868447,0 197.002745,5.80970013 201.472721,14.9963579 L351.465242,323.64362 C354.326458,327.975901 356,333.207964 356,338.851038 C356,353.858504 344.177238,366 329.612027,366" id="Fill-19" fill="#3FB1E5" style="mix-blend-mode: multiply;" transform="translate(178.000000, 183.000000) scale(1, -1) rotate(180.000000) translate(-178.000000, -183.000000) "></path>
            <path d="M627.58281,674 L324.406386,674 C309.820207,674 298,661.858504 298,646.862146 L298,335.148962 C298,320.141496 309.820207,308 324.406386,308 L627.58281,308 C642.168988,308 654,320.141496 654,335.148962 L654,646.862146 C654,661.858504 642.168988,674 627.58281,674" id="Fill-23" fill="#38BB4C" style="mix-blend-mode: multiply;"></path>
            <path d="M183.994598,674 C85.8566269,674 6,591.906334 6,490.994446 C6,390.082557 85.8566269,308 183.994598,308 C282.143373,308 362,390.082557 362,490.994446 C362,591.906334 282.143373,674 183.994598,674" id="Fill-29" fill="#FF2F57" style="mix-blend-mode: multiply;"></path>
        </g>
    </g>
</svg>