<?xml version="1.0" encoding="UTF-8"?>
<svg width="1128px" height="1128px" viewBox="0 0 1128 1128" version="1.1" xmlns="http://www.w3.org/2000/svg" xmlns:xlink="http://www.w3.org/1999/xlink">
    <!-- Generator: Sketch 51.3 (57544) - http://www.bohemiancoding.com/sketch -->
    <title>Artboard 2</title>
    <desc>Created with Sketch.</desc>
    <defs></defs>
    <g id="Artboard-2" stroke="none" stroke-width="1" fill="none" fill-rule="evenodd">
        <rect fill="#FFFFFF" x="0" y="0" width="1128" height="1128"></rect>
        <g id="Group-2" transform="translate(253.000000, 149.000000)">
            <path d="M312.144375,343.669643 L311.898979,343.669643 L24.989458,343.669643 C16.3290031,343.669643 8.28203968,339.111441 3.73197779,331.59093 C-0.818084104,324.070418 -1.23730329,314.682817 2.63791796,306.776371 L146.082453,14.0814015 C150.32577,5.45523926 158.976,0 168.444218,0 C177.912437,0 186.562667,5.45523926 190.795758,14.0814015 L332.839488,303.897507 C335.549076,307.965467 337.133929,312.878311 337.133929,318.177091 C337.133929,332.268923 325.937709,343.669643 312.144375,343.669643" id="Fill-19" fill="#3FB1E5" style="mix-blend-mode: multiply;" transform="translate(168.566964, 171.834821) scale(1, -1) rotate(180.000000) translate(-168.566964, -171.834821) "></path>
            <path d="M593.982778,631 L306.873062,631 C293.059871,631 281.866071,619.59928 281.866071,605.517879 L281.866071,312.822909 C281.866071,298.731077 293.059871,287.330357 306.873062,287.330357 L593.982778,287.330357 C607.795968,287.330357 619,298.731077 619,312.822909 L619,605.517879 C619,619.59928 607.795968,631 593.982778,631" id="Fill-23" fill="#38BB4C" style="mix-blend-mode: multiply;"></path>
            <path d="M174.088634,631 C81.151444,631 5.52678571,553.915025 5.52678571,459.159963 C5.52678571,364.404901 81.151444,287.330357 174.088634,287.330357 C267.036056,287.330357 342.660714,364.404901 342.660714,459.159963 C342.660714,553.915025 267.036056,631 174.088634,631" id="Fill-29" fill="#FF2F57" style="mix-blend-mode: multiply;"></path>
        </g>
        <path d="M257,866.72 L288.780716,866.72 C318.832774,866.72 344.097779,889.915429 344.097779,922.281143 C344.097779,954.781714 318.965748,977.977143 288.780716,977.977143 L257,977.977143 L257,866.72 Z M281.999057,955.321143 L285.855295,955.321143 C304.33864,955.321143 316.971142,941.026286 317.104116,922.416 C317.104116,903.805714 304.471614,889.376 285.855295,889.376 L281.999057,889.376 L281.999057,955.321143 Z M425.07138,946.690286 L375.60516,946.690286 C375.60516,957.344 384.381425,960.985143 390.365242,960.985143 C397.944743,960.985143 401.269086,959.501714 406.986956,953.298286 L424.00759,961.929143 C416.295115,975.010286 403.795587,980 388.636584,980 C368.025659,980 351.137998,963.547429 351.137998,943.453714 C351.137998,923.225143 368.025659,906.772571 388.636584,906.772571 C409.380482,906.772571 425.204354,919.179429 425.204354,943.453714 C425.204354,944.397714 425.204354,945.881143 425.07138,946.690286 Z M376.270029,933.474286 L402.199902,933.474286 C401.136112,926.192 396.216085,922.281143 389.301452,922.281143 C381.190056,922.281143 376.66895,927.136 376.270029,933.474286 Z M448.99926,866.045714 C456.711735,866.045714 462.961499,872.384 462.961499,880.205714 C462.961499,888.027429 456.711735,894.365714 448.99926,894.365714 C441.286785,894.365714 435.037021,888.027429 435.037021,880.205714 C435.037021,872.384 441.286785,866.045714 448.99926,866.045714 Z M436.898653,908.795429 L460.434999,908.795429 L460.434999,977.977143 L436.898653,977.977143 L436.898653,908.795429 Z M507.633278,906.772571 C520.797675,906.772571 530.504756,912.166857 530.504756,912.166857 L522.792281,927.810286 C522.792281,927.810286 514.813858,923.494857 507.633278,923.494857 C502.447303,923.494857 500.319724,924.438857 500.319724,927.675429 C500.319724,931.316571 505.106778,932.395429 510.957621,934.283429 C519.999833,937.115429 531.701519,942.24 531.701519,956.4 C531.701519,976.763429 513.351147,980 499.388908,980 C482.900168,980 473.060114,970.694857 473.060114,970.694857 L482.634221,954.377143 C482.634221,954.377143 491.94238,962.333714 499.521882,962.333714 C502.846225,962.333714 506.835436,961.929143 506.835436,957.344 C506.835436,952.354286 499.388908,951.949714 491.676433,947.904 C484.7618,944.262857 477.847167,939.408 477.847167,929.024 C477.847167,914.864 489.681827,906.772571 507.633278,906.772571 Z M588.400031,866.72 L588.400031,955.725714 L626.164564,955.725714 L626.164564,977.977143 L563.400974,977.977143 L563.400974,866.72 L588.400031,866.72 Z M634.53452,943.453714 C634.53452,923.225143 648.49676,906.772571 668.442816,906.772571 C677.618002,906.772571 685.197503,909.874286 690.782399,915.403429 L690.782399,908.795429 L714.318745,908.795429 L714.318745,977.977143 L691.048346,977.977143 L691.048346,970.155429 L690.782399,970.155429 C685.729398,975.819429 677.750976,980 668.442816,980 C648.49676,980 634.53452,963.682286 634.53452,943.453714 Z M659.533578,943.453714 C659.533578,952.893714 665.916316,959.636571 675.490423,959.636571 C684.665608,959.636571 691.314294,952.893714 691.314294,943.453714 C691.314294,933.878857 684.266687,927.136 675.490423,927.136 C666.581184,927.136 659.533578,933.878857 659.533578,943.453714 Z M810.983244,943.453714 C810.983244,963.682286 797.021005,980 777.074948,980 C767.766789,980 759.788366,975.819429 754.735365,970.155429 L754.469418,970.155429 L754.469418,977.977143 L731.199019,977.977143 L731.199019,862 L754.735365,862 L754.735365,915.403429 C760.320261,909.874286 767.899763,906.772571 777.074948,906.772571 C797.021005,906.772571 810.983244,923.225143 810.983244,943.453714 Z M785.984187,943.453714 C785.984187,933.878857 778.93658,927.136 770.027342,927.136 C761.251077,927.136 754.203471,933.878857 754.203471,943.453714 C754.203471,952.893714 760.852156,959.636571 770.027342,959.636571 C779.601449,959.636571 785.984187,952.893714 785.984187,943.453714 Z M851.931759,906.772571 C865.096156,906.772571 874.803237,912.166857 874.803237,912.166857 L867.090762,927.810286 C867.090762,927.810286 859.112339,923.494857 851.931759,923.494857 C846.745784,923.494857 844.618205,924.438857 844.618205,927.675429 C844.618205,931.316571 849.405258,932.395429 855.256101,934.283429 C864.298314,937.115429 876,942.24 876,956.4 C876,976.763429 857.649628,980 843.687389,980 C827.198649,980 817.358595,970.694857 817.358595,970.694857 L826.932702,954.377143 C826.932702,954.377143 836.240861,962.333714 843.820363,962.333714 C847.144705,962.333714 851.133917,961.929143 851.133917,957.344 C851.133917,952.354286 843.687389,951.949714 835.974914,947.904 C829.060281,944.262857 822.145648,939.408 822.145648,929.024 C822.145648,914.864 833.980308,906.772571 851.931759,906.772571 Z" id="Deis-Labs" fill="#4A4A4A"></path>
    </g>
</svg>