<?xml version="1.0" encoding="UTF-8"?>
<svg width="450px" height="450px" viewBox="0 0 450 450" version="1.1" xmlns="http://www.w3.org/2000/svg" xmlns:xlink="http://www.w3.org/1999/xlink">
    <!-- Generator: Sketch 51.3 (57544) - http://www.bohemiancoding.com/sketch -->
    <title>Icon Design</title>
    <desc>Created with Sketch.</desc>
    <defs></defs>
    <g id="Icon-Design" stroke="none" stroke-width="1" fill="none" fill-rule="evenodd">
        <g id="Group" transform="translate(19.000000, 0.000000)" fill-rule="nonzero">
            <rect id="Rectangle" fill="#FFF3E6" x="87" y="216" width="182" height="182"></rect>
            <rect id="Rectangle" fill="#2EC4B6" x="214" y="252" width="145" height="146"></rect>
            <rect id="Rectangle" fill="#D3DDF7" x="236" y="52" width="127" height="127"></rect>
            <polygon id="Triangle" fill="#3731AA" points="178 34 269 216 87 216"></polygon>
            <circle id="Oval-2" fill="#E83683" cx="95" cy="307" r="91"></circle>
            <polygon id="Path-5" fill="#CCFF66" points="133 52 52 210 52 52"></polygon>
            <g id="corner" fill="#3731AA">
                <rect id="Rectangle-2" x="0" y="0" width="18.1428571" height="127"></rect>
                <rect id="Rectangle-2" transform="translate(63.500000, 9.071429) rotate(-90.000000) translate(-63.500000, -9.071429) " x="54.4285714" y="-54.4285714" width="18.1428571" height="127"></rect>
            </g>
            <g id="corner" transform="translate(348.500000, 63.500000) scale(-1, 1) translate(-348.500000, -63.500000) translate(285.000000, 0.000000)" fill="#3731AA">
                <rect id="Rectangle-2" x="0" y="0" width="18.1428571" height="127"></rect>
                <rect id="Rectangle-2" transform="translate(63.500000, 9.071429) rotate(-90.000000) translate(-63.500000, -9.071429) " x="54.4285714" y="-54.4285714" width="18.1428571" height="127"></rect>
            </g>
            <g id="corner" transform="translate(348.500000, 386.500000) scale(-1, -1) translate(-348.500000, -386.500000) translate(285.000000, 323.000000)" fill="#3731AA">
                <rect id="Rectangle-2" x="0" y="0" width="18.1428571" height="127"></rect>
                <rect id="Rectangle-2" transform="translate(63.500000, 9.071429) rotate(-90.000000) translate(-63.500000, -9.071429) " x="54.4285714" y="-54.4285714" width="18.1428571" height="127"></rect>
            </g>
        </g>
    </g>
</svg>